<svg xmlns="http://www.w3.org/2000/svg" width="11" height="23" viewBox="0 0 11 23">
  <metadata><?xpacket begin="﻿" id="W5M0MpCehiHzreSzNTczkc9d"?>
<x:xmpmeta xmlns:x="adobe:ns:meta/" x:xmptk="Adobe XMP Core 5.6-c140 79.160451, 2017/05/06-01:08:21        ">
   <rdf:RDF xmlns:rdf="http://www.w3.org/1999/02/22-rdf-syntax-ns#">
      <rdf:Description rdf:about=""/>
   </rdf:RDF>
</x:xmpmeta>
<?xpacket end="w"?></metadata>
<defs>
    <style>
      .cls-1 {
        fill: none;
        stroke: #fff;
        stroke-width: 1px;
        fill-rule: evenodd;
      }
    </style>
  </defs>
  <path class="cls-1" d="M10.734,15a6.243,6.243,0,0,1-1.892,1v7H2.218V16A5.083,5.083,0,0,1,.325,15c-0.2-.444-0.614-6.375,0-7s9.956-.833,10.409,0S10.927,14.623,10.734,15ZM5.53,7A3.41,3.41,0,0,1,2.218,3.5,3.41,3.41,0,0,1,5.53,0,3.41,3.41,0,0,1,8.841,3.5,3.41,3.41,0,0,1,5.53,7Z"/>
</svg>
