<?xml version="1.0" encoding="utf-8"?>
<!-- Generator: Adobe Illustrator 22.0.1, SVG Export Plug-In . SVG Version: 6.00 Build 0)  -->
<svg version="1.1" id="Layer_1" xmlns="http://www.w3.org/2000/svg" xmlns:xlink="http://www.w3.org/1999/xlink" x="0px" y="0px"
	 viewBox="0 0 16 16" style="enable-background:new 0 0 16 16;" xml:space="preserve">
<style type="text/css">
	.st0{fill:none;stroke:#5973a3;stroke-width:2;stroke-linecap:square;stroke-miterlimit:10;}
</style>
<g transform="translate(0, 0)">
	<path class="st0" d="M10.9,10.5C11.7,9,13,8.5,14.7,8.4c-0.3-0.4-0.7-0.8-1.2-1.1c-0.6-0.4-1.3-0.5-2-0.5c0.3-0.6,0.5-1.3,0.5-2
		c0-0.8-0.3-1.6-0.7-2.3C11.1,4.2,9.7,5.5,8,5.5S4.9,4.2,4.7,2.5C4.3,3.2,4,4,4,4.8c0,0.7,0.2,1.4,0.5,2c-0.7,0-1.4,0.2-2,0.5
		C2.1,7.6,1.7,8,1.3,8.4C3,8.5,4.3,9,5.1,10.5c0.9,1.5,0.4,3.3-0.9,4.3c0.8,0.1,1.6-0.1,2.3-0.5c0.6-0.4,1.1-0.9,1.5-1.5
		c0.3,0.6,0.8,1.1,1.5,1.5c0.7,0.4,1.5,0.6,2.3,0.5C10.5,13.8,10,11.9,10.9,10.5z"/>
</g>
</svg>
