<svg xmlns="http://www.w3.org/2000/svg" width="778" height="160" viewBox="0 0 778 160">
  <metadata><?xpacket begin="﻿" id="W5M0MpCehiHzreSzNTczkc9d"?>
<x:xmpmeta xmlns:x="adobe:ns:meta/" x:xmptk="Adobe XMP Core 5.6-c140 79.160451, 2017/05/06-01:08:21        ">
   <rdf:RDF xmlns:rdf="http://www.w3.org/1999/02/22-rdf-syntax-ns#">
      <rdf:Description rdf:about=""/>
   </rdf:RDF>
</x:xmpmeta>
<?xpacket end="w"?></metadata>
<defs>
    <style>
      .cls-1 {
        fill: #f4c257;
      }

      .cls-1, .cls-2 {
        fill-rule: evenodd;
      }

      .cls-2 {
        fill: #1d344f;
      }
    </style>
  </defs>
  <path id="TernioSymbol" class="cls-1" d="M60.652,22L67.5,18l53.8,32V63l-6.847,5V54L94.891,43,66.522,60l-5.869-4L88.044,39ZM32.283,47L20.544,54V76L49.891,93v9L20.544,84v34L13.7,113V50l11.739-7M38.152,60l-2.935,3v5L64.565,85v33l3.913,2,3.913-2V83L99.783,67V62L95.87,60,66.522,77ZM86.087,92l6.848-4,0.978,33L121.3,105v8L67.5,145l-11.739-7v-8L67.5,136l18.587-11V92Zm-53.8-69L67.5,2,135,42V72L107.609,88v8L135,80v41L67.5,161,42.065,146V114l-6.848-5v33L0,121V42L25.435,27,52.826,43l7.826-4Z"/>
  <path id="TernioLetters" class="cls-2" d="M170,17.382H344.55V45.833H297.4V65.139h43.136V93.59H297.4v24.387h49.155v28.451H265.3V45.833H234.2v100.6H202.1V45.833H170V17.382Zm186.588,0V146.428h33.1V107.816h17.054l22.069,38.612h36.114v-6.1L439.85,100.7s19.725-10.7,19.06-39.629C458.291,34.11,443.131,23.64,424.8,18.4c-3.744-1.071-16.482-.891-22.07-1.016C379.958,16.873,356.588,17.382,356.588,17.382Zm33.1,28.451V79.365h25.079s11.381-2.5,12.038-16.258c0.679-14.217-12.038-17.274-12.038-17.274H389.692Zm85.269,100.6V16.365H487l65.2,64.015v-63h33.105V146.428H573.271l-64.2-64.015v64.015H474.961ZM599.353,17.382h33.1V146.428h-33.1V17.382ZM708.7,46.849s34.255-1.458,33.105,36.58c-1.04,34.378-32.1,34.548-32.1,34.548s-32.851.975-32.1-38.612c0.29-15.291,6.576-20.884,12.038-25.4A30.651,30.651,0,0,1,708.7,46.849Zm2.007-31.5S683.888,10.423,658.539,37.7s-12.394,73.777-4.012,84.337S678.7,146.32,697.663,148.46c21.585,2.437,45.619-3.173,60.189-19.306,10.747-11.9,16.393-22.988,17.054-40.644,1-26.872-5.608-46.711-21.066-57.918-7.237-5.247-15.343-10.785-24.076-13.21A61.561,61.561,0,0,0,710.7,15.349Z"/>
</svg>
