<svg xmlns="http://www.w3.org/2000/svg" width="135" height="160" viewBox="0 0 135 160">
  <metadata><?xpacket begin="﻿" id="W5M0MpCehiHzreSzNTczkc9d"?>
<x:xmpmeta xmlns:x="adobe:ns:meta/" x:xmptk="Adobe XMP Core 5.6-c140 79.160451, 2017/05/06-01:08:21        ">
   <rdf:RDF xmlns:rdf="http://www.w3.org/1999/02/22-rdf-syntax-ns#">
      <rdf:Description rdf:about=""/>
   </rdf:RDF>
</x:xmpmeta>
<?xpacket end="w"?></metadata>
<defs>
    <style>
      .cls-1 {
        fill: #f4c257;
        fill-rule: evenodd;
      }
    </style>
  </defs>
  <path id="TernioSymbol" class="cls-1" d="M60.652,22L67.5,18l53.8,32V63l-6.847,5V54L94.891,43,66.522,60l-5.869-4L88.044,39ZM32.283,47L20.544,54V76L49.891,93v9L20.544,84v34L13.7,113V50l11.739-7M38.152,60l-2.935,3v5L64.565,85v33l3.913,2,3.913-2V83L99.783,67V62L95.87,60,66.522,77ZM86.087,92l6.848-4,0.978,33L121.3,105v8L67.5,145l-11.739-7v-8L67.5,136l18.587-11V92Zm-53.8-69L67.5,2,135,42V72L107.609,88v8L135,80v41L67.5,161,42.065,146V114l-6.848-5v33L0,121V42L25.435,27,52.826,43l7.826-4Z"/>
</svg>
